<svg width="40" height="40" viewBox="0 0 40 40" fill="none" xmlns="http://www.w3.org/2000/svg">
<g id="Group 79">
<rect id="Rectangle 48" x="0.5" y="0.5" width="39" height="39" rx="7.5" fill="white" stroke="#E8E8E8"/>
<g id="Icon/notification">
<path id="Vector" d="M20.0133 25.6867C18.46 25.6867 16.9067 25.44 15.4333 24.9467C14.8733 24.7533 14.4467 24.36 14.26 23.8467C14.0667 23.3333 14.1333 22.7667 14.44 22.26L15.2067 20.9867C15.3667 20.72 15.5133 20.1867 15.5133 19.8733V17.9467C15.5133 15.4667 17.5333 13.4467 20.0133 13.4467C22.4933 13.4467 24.5133 15.4667 24.5133 17.9467V19.8733C24.5133 20.18 24.66 20.72 24.82 20.9933L25.58 22.26C25.8667 22.74 25.92 23.32 25.7267 23.8467C25.5333 24.3733 25.1133 24.7733 24.5867 24.9467C23.12 25.44 21.5667 25.6867 20.0133 25.6867ZM20.0133 14.4467C18.0867 14.4467 16.5133 16.0133 16.5133 17.9467V19.8733C16.5133 20.36 16.3133 21.08 16.0667 21.5L15.3 22.7733C15.1533 23.02 15.1133 23.28 15.2 23.5C15.28 23.7267 15.48 23.9 15.7533 23.9933C18.54 24.9267 21.4933 24.9267 24.28 23.9933C24.52 23.9133 24.7067 23.7333 24.7933 23.4933C24.88 23.2533 24.86 22.9933 24.7267 22.7733L23.96 21.5C23.7067 21.0667 23.5133 20.3533 23.5133 19.8667V17.9467C23.5133 16.0133 21.9467 14.4467 20.0133 14.4467Z" fill="#A9A9A9"/>
<path id="Vector_2" d="M21.2533 14.6267C21.2067 14.6267 21.16 14.62 21.1133 14.6067C20.92 14.5533 20.7333 14.5133 20.5533 14.4867C19.9867 14.4133 19.44 14.4533 18.9267 14.6067C18.74 14.6667 18.54 14.6067 18.4133 14.4667C18.2867 14.3267 18.2467 14.1267 18.32 13.9467C18.5933 13.2467 19.26 12.7867 20.02 12.7867C20.78 12.7867 21.4467 13.24 21.72 13.9467C21.7867 14.1267 21.7533 14.3267 21.6267 14.4667C21.5267 14.5733 21.3867 14.6267 21.2533 14.6267Z" fill="#A9A9A9"/>
<path id="Vector_3" d="M20.0134 27.2067C19.3534 27.2067 18.7134 26.94 18.2468 26.4733C17.7801 26.0067 17.5134 25.3667 17.5134 24.7067H18.5134C18.5134 25.1 18.6734 25.4867 18.9534 25.7667C19.2334 26.0467 19.6201 26.2067 20.0134 26.2067C20.8401 26.2067 21.5134 25.5333 21.5134 24.7067H22.5134C22.5134 26.0867 21.3934 27.2067 20.0134 27.2067Z" fill="#A9A9A9"/>
</g>
</g>
</svg>
