<svg width="22" height="24" viewBox="0 0 22 24" fill="none" xmlns="http://www.w3.org/2000/svg">
<g id="Icon/element-3">
<path id="Vector" d="M19.9375 8.52V3.98C19.9375 2.57 19.3575 2 17.9166 2H14.2553C12.8144 2 12.2344 2.57 12.2344 3.98V8.51C12.2344 9.93 12.8144 10.49 14.2553 10.49H17.9166C19.3575 10.5 19.9375 9.93 19.9375 8.52Z" fill="#8A8A8A"/>
<path id="Vector_2" d="M19.9375 19.77V15.73C19.9375 14.14 19.3575 13.5 17.9166 13.5H14.2553C12.8144 13.5 12.2344 14.14 12.2344 15.73V19.77C12.2344 21.36 12.8144 22 14.2553 22H17.9166C19.3575 22 19.9375 21.36 19.9375 19.77Z" fill="#8A8A8A"/>
<path id="Vector_3" d="M9.51562 8.52V3.98C9.51562 2.57 8.93563 2 7.49469 2H3.83344C2.3925 2 1.8125 2.57 1.8125 3.98V8.51C1.8125 9.93 2.3925 10.49 3.83344 10.49H7.49469C8.93563 10.5 9.51562 9.93 9.51562 8.52Z" fill="#8A8A8A"/>
<path id="Vector_4" d="M9.51562 19.77V15.73C9.51562 14.14 8.93563 13.5 7.49469 13.5H3.83344C2.3925 13.5 1.8125 14.14 1.8125 15.73V19.77C1.8125 21.36 2.3925 22 3.83344 22H7.49469C8.93563 22 9.51562 21.36 9.51562 19.77Z" fill="#8A8A8A"/>
</g>
</svg>
